<?xml version="1.0" encoding="utf-8"?>
<!-- Generated by IcoMoon.io -->
<!DOCTYPE svg PUBLIC "-//W3C//DTD SVG 1.1//EN" "http://www.w3.org/Graphics/SVG/1.1/DTD/svg11.dtd">
<svg version="1.1" xmlns="http://www.w3.org/2000/svg" xmlns:xlink="http://www.w3.org/1999/xlink" width="512" height="512" viewBox="0 0 512 512">
<g id="icomoon-ignore">
</g>
<path d="M352 0h-192l-96 64v128h384v-128l-96-64zM320 160h-32v-21.333c0-5.867-4.8-10.667-10.667-10.667h-42.666c-5.866 0-10.667 4.8-10.667 10.667v21.333h-32v-53.333c0-5.867 4.801-10.667 10.667-10.667h106.665c5.867 0 10.668 4.8 10.668 10.667v53.333zM64 352.001h384v-128.001h-384v128.001zM192 266.666c0-5.867 4.801-10.666 10.667-10.666h106.665c5.867 0 10.668 4.799 10.668 10.666v53.334h-32v-21.334c0-5.867-4.8-10.666-10.667-10.666h-42.666c-5.866 0-10.667 4.799-10.667 10.666v21.334h-32v-53.334zM64 512h384v-127.999h-384v127.999zM192 426.666c0-5.867 4.801-10.666 10.667-10.666h106.665c5.867 0 10.668 4.799 10.668 10.666v53.334h-32v-21.334c0-5.867-4.8-10.666-10.667-10.666h-42.666c-5.866 0-10.667 4.799-10.667 10.666v21.334h-32v-53.334z"></path>
</svg>
